# xmcd CD database file
#
# Track frame offsets:
#	150
#	14992
#	34240
#	46010
#	55897
#	67407
#	98187
#	112745
#	131590
#	153200
#	175110
#	190127
#	208057
#
# Disc length: 3001 seconds
#
# Revision: 2
# Processed by: cddbd v1.5.2PL0 Copyright (c) Steve Scherf et al.
# Submitted via: CDex 1.70beta2
#
DISCID=b50bb70d
DTITLE=Bernadette Peters - Bernadette
DYEAR=1992
DGENRE=Musical
TTITLE0=Broadway Baby
TTITLE1=Don't
TTITLE2=Gee Whiz
TTITLE3=Carrying A Torch
TTITLE4=Sweet Alibis
TTITLE5=I Don't Know Why (I Just Do)/ Mean To Me
TTITLE6=If You Were The Only Boy
TTITLE7=Should've Never Let Him Go
TTITLE8=Pearl's A Singer
TTITLE9=Other Lady
TTITLE10=Only Wounded
TTITLE11=I Never Thought I'd Break
TTITLE12=You'll Never Know
EXTD=YEAR: 1992
EXTT0=
EXTT1=
EXTT2=
EXTT3=
EXTT4=
EXTT5=
EXTT6=
EXTT7=
EXTT8=
EXTT9=
EXTT10=
EXTT11=
EXTT12=
PLAYORDER=
